<svg width="33" height="32" viewBox="0 0 33 32" fill="none" xmlns="http://www.w3.org/2000/svg">
<g id="Icon">
<path id="Union" fill-rule="evenodd" clip-rule="evenodd" d="M12.5 2.66667H7.16671V5.33333H4.50004V8H1.83337V16H4.50004V18.6667H7.16671V21.3333H9.83337V24H12.5V26.6667H15.1667V29.3333H17.8334V26.6667H20.5V24H23.1667V21.3333H25.8334V18.6667H28.5V16H31.1667V8H28.5V5.33333H25.8334V2.66667H20.5V5.33333H17.8334V8H15.1667V5.33333H12.5V2.66667ZM12.5 5.33333V8H15.1667V10.6667H17.8334V8H20.5V5.33333H25.8334V8H28.5V16H25.8334V18.6667H23.1667V21.3333H20.5V24H17.8334V26.6667H15.1667V24H12.5V21.3333H9.83337V18.6667H7.16671V16H4.50004V8H7.16671V5.33333H12.5Z" fill="black"/>
</g>
</svg>
