<svg width="33" height="32" viewBox="0 0 33 32" fill="none" xmlns="http://www.w3.org/2000/svg">
<g id="Icon" clip-path="url(#clip0_638_31)">
<path id="Union" fill-rule="evenodd" clip-rule="evenodd" d="M15.1667 2.66666H7.16667V5.33332H4.50033V13.3333H7.16667V16H15.1667V13.3333H7.16699V5.33332H15.1667V2.66666ZM15.167 5.33332H17.8337V13.3333H15.167V5.33332ZM0.5 21.3333H3.16667V26.6667H19.1667V29.3333L3.16667 29.3333H0.5V21.3333ZM3.16667 21.3333H19.1667V18.6667H3.16667V21.3333ZM21.8337 21.3333H19.167V29.3333H21.8337V21.3333ZM20.5 2.66666H25.8333V5.33332H20.5V2.66666ZM25.8333 13.3333H20.5V16H25.8333V13.3333ZM25.8337 5.33332H28.5003V13.3333H25.8337V5.33332ZM32.5003 21.3333H29.8337V26.6667H24.5V29.3333H32.5V26.6667H32.5003V21.3333ZM24.5 18.6667H29.8333V21.3333H24.5V18.6667Z" fill="black"/>
</g>
<defs>
<clipPath id="clip0_638_31">
<rect width="32" height="32" fill="white" transform="translate(0.5)"/>
</clipPath>
</defs>
</svg>
